<svg viewBox="0 0 21 18" fill="none" xmlns="http://www.w3.org/2000/svg"><path fill-rule="evenodd" clip-rule="evenodd" d="M20.59 1.611a.5.5 0 0 1 .01.74L8.13 14 .39 6.77a.5.5 0 0 1 0-.73l.676-.632c1.433-1.338 3.756-1.338 5.189 0l1.873 1.75 6.588-6.154C16.124-.311 18.398-.338 19.84.945l.75.666Z" fill="url(#a)"/><path fill-rule="evenodd" clip-rule="evenodd" d="M20.59 5.611a.5.5 0 0 1 .01.74L8.13 18 .39 10.77a.5.5 0 0 1 0-.73l.676-.632c1.433-1.338 3.756-1.338 5.189 0l1.873 1.75 6.588-6.154c1.408-1.315 3.682-1.342 5.124-.059l.75.666Z" fill="url(#b)"/><defs><linearGradient id="a" x1="0" y1="0" x2="18.538" y2="20.855" gradientUnits="userSpaceOnUse"><stop stop-color="#9AAED8"/><stop offset="1" stop-color="#83A0DE"/></linearGradient><linearGradient id="b" x1="0" y1="-.768" x2="18" y2="23.314" gradientUnits="userSpaceOnUse"><stop stop-color="#4C86DF"/><stop offset="1" stop-color="#3C70C1"/></linearGradient></defs></svg>