<svg viewBox="0 0 17 22" fill="none" xmlns="http://www.w3.org/2000/svg"><path fill-rule="evenodd" clip-rule="evenodd" d="M11.334 9.635A4.6 4.6 0 0 1 8.5 10.6c-2.504 0-4.533-1.97-4.533-4.4V3.6c0-.58.142-1.13.393-1.615A2.798 2.798 0 0 0 6.75 3.3h1.803c1.536 0 2.782 1.209 2.782 2.7v3.635Z" fill="url(#a)"/><path fill-rule="evenodd" clip-rule="evenodd" d="M4.36 1.985A3.722 3.722 0 0 1 7.676 0h4.857a.5.5 0 0 1 .5.5v5.7c0 1.39-.663 2.629-1.7 3.435V6c0-1.491-1.245-2.7-2.781-2.7H6.749A2.798 2.798 0 0 1 4.36 1.985Z" fill="url(#b)"/><path d="M0 18.7c0-3.645 3.044-6.6 6.8-6.6h3.4c3.756 0 6.8 2.955 6.8 6.6V22H0v-3.3Z" fill="url(#c)"/><path d="M7.51 12.094h2l-1 5-1-5Z" fill="#F6F7F8"/><path fill-rule="evenodd" clip-rule="evenodd" d="M15.384 15.27a.404.404 0 0 1 .007.597L12.038 19l-2.018-1.885a.39.39 0 0 1 0-.57 1.101 1.101 0 0 1 1.482 0l.536.5 1.882-1.758a1.102 1.102 0 0 1 1.464-.017Z" fill="#fff"/><defs><linearGradient id="a" x1="11.334" y1="1.985" x2=".894" y2="8.68" gradientUnits="userSpaceOnUse"><stop stop-color="#9AAED8"/><stop offset="1" stop-color="#83A0DE"/></linearGradient><linearGradient id="b" x1="13.033" y1="-3.281" x2=".422" y2="6.844" gradientUnits="userSpaceOnUse"><stop stop-color="#4C86DF"/><stop offset="1" stop-color="#3C70C1"/></linearGradient><linearGradient id="c" x1="0" y1="8.728" x2="12.151" y2="27.338" gradientUnits="userSpaceOnUse"><stop stop-color="#4C86DF"/><stop offset="1" stop-color="#3C70C1"/></linearGradient></defs></svg>