<svg viewBox="0 0 30 30" fill="none" xmlns="http://www.w3.org/2000/svg"><path fill-rule="evenodd" clip-rule="evenodd" d="M15 30c8.284 0 15-6.716 15-15 0-8.284-6.716-15-15-15C6.716 0 0 6.716 0 15c0 8.284 6.716 15 15 15Zm0-9a6 6 0 1 0 0-12 6 6 0 0 0 0 12Z" fill="url(#a)"/><path d="m5.219 26.372 6.409-6.409a6.033 6.033 0 0 1-1.591-1.59l-6.41 6.409c.49.569 1.023 1.1 1.592 1.59Z" fill="url(#b)"/><path d="m3.628 5.219 6.409 6.409a6.033 6.033 0 0 1 1.59-1.591L5.22 3.627c-.57.49-1.101 1.022-1.591 1.592Z" fill="url(#c)"/><path d="m18.372 10.037 6.41-6.41c.569.49 1.1 1.023 1.59 1.592l-6.409 6.409a6.033 6.033 0 0 0-1.59-1.591Z" fill="url(#d)"/><path d="m26.372 24.781-6.409-6.409a6.034 6.034 0 0 1-1.59 1.591l6.408 6.41a15.04 15.04 0 0 0 1.591-1.592Z" fill="url(#e)"/><defs><linearGradient id="a" x1="0" y1="-10.217" x2="39.956" y2="25.421" gradientUnits="userSpaceOnUse"><stop stop-color="#4C86DF"/><stop offset="1" stop-color="#3C70C1"/></linearGradient><linearGradient id="b" x1="3.627" y1="3.628" x2="32.741" y2="25.463" gradientUnits="userSpaceOnUse"><stop stop-color="#9AAED8"/><stop offset="1" stop-color="#83A0DE"/></linearGradient><linearGradient id="c" x1="3.627" y1="3.628" x2="32.741" y2="25.463" gradientUnits="userSpaceOnUse"><stop stop-color="#9AAED8"/><stop offset="1" stop-color="#83A0DE"/></linearGradient><linearGradient id="d" x1="3.627" y1="3.628" x2="32.741" y2="25.463" gradientUnits="userSpaceOnUse"><stop stop-color="#9AAED8"/><stop offset="1" stop-color="#83A0DE"/></linearGradient><linearGradient id="e" x1="3.627" y1="3.628" x2="32.741" y2="25.463" gradientUnits="userSpaceOnUse"><stop stop-color="#9AAED8"/><stop offset="1" stop-color="#83A0DE"/></linearGradient></defs></svg>