<svg width="18" height="22" viewBox="0 0 18 22" fill="none" xmlns="http://www.w3.org/2000/svg">
<path fill-rule="evenodd" clip-rule="evenodd" d="M11.8336 9.63493C11.0575 10.2387 10.0723 10.5999 9.00025 10.5999C6.49659 10.5999 4.46698 8.63004 4.46698 6.19992V3.6C4.46698 3.01921 4.60862 2.47056 4.86031 1.98489C5.34613 2.77265 6.23401 3.29999 7.24877 3.29999H9.05184C10.5881 3.29999 11.8336 4.50882 11.8336 5.99994V9.63493Z" fill="url(#paint0_linear_687_28)"/>
<path fill-rule="evenodd" clip-rule="evenodd" d="M4.86014 1.9849C5.47001 0.80765 6.72577 0 8.17582 0H13.0334C13.3096 0 13.5334 0.223858 13.5334 0.5V6.19993C13.5334 7.58941 12.8699 8.82851 11.8334 9.63484V5.99995C11.8334 4.50873 10.588 3.29999 9.05166 3.29999H7.2486C6.23384 3.29999 5.34595 2.77256 4.86014 1.9849Z" fill="url(#paint1_linear_687_28)"/>
<path d="M0.5 18.7C0.5 15.055 3.54446 12.1 7.3 12.1H9H10.7C14.4555 12.1 17.5 15.055 17.5 18.7V22H0.5V18.7Z" fill="url(#paint2_linear_687_28)"/>
<path d="M8.0094 12.0944H10.0094L9.0094 17.0944L8.0094 12.0944Z" fill="#F6F7F8"/>
<defs>
<linearGradient id="paint0_linear_687_28" x1="19.3103" y1="-4.13819" x2="2.49294" y2="13.6458" gradientUnits="userSpaceOnUse">
<stop stop-color="#9B9EA2"/>
<stop offset="1" stop-color="#7E8288"/>
</linearGradient>
<linearGradient id="paint1_linear_687_28" x1="17.0216" y1="-0.783663" x2="-1.67943" y2="20.0264" gradientUnits="userSpaceOnUse">
<stop stop-color="#5C636B"/>
<stop offset="1" stop-color="#5C636B"/>
</linearGradient>
<linearGradient id="paint2_linear_687_28" x1="-6.33692" y1="11.2948" x2="8.56451" y2="42.9256" gradientUnits="userSpaceOnUse">
<stop stop-color="#5C636B"/>
<stop offset="1" stop-color="#5C636B"/>
</linearGradient>
</defs>
</svg>
