<svg viewBox="0 0 18 22" fill="none" xmlns="http://www.w3.org/2000/svg"><path fill-rule="evenodd" clip-rule="evenodd" d="M11.834 9.635A4.6 4.6 0 0 1 9 10.6c-2.503 0-4.533-1.97-4.533-4.4V3.6c0-.58.142-1.13.393-1.615A2.798 2.798 0 0 0 7.25 3.3h1.803c1.536 0 2.782 1.209 2.782 2.7v3.635Z" fill="url(#a)"/><path fill-rule="evenodd" clip-rule="evenodd" d="M4.86 1.985A3.722 3.722 0 0 1 8.176 0h4.857a.5.5 0 0 1 .5.5v5.7c0 1.39-.663 2.629-1.7 3.435V6c0-1.491-1.245-2.7-2.781-2.7H7.249A2.798 2.798 0 0 1 4.86 1.985Z" fill="url(#b)"/><path d="M.5 18.7c0-3.645 3.044-6.6 6.8-6.6h3.4c3.756 0 6.8 2.955 6.8 6.6V22H.5v-3.3Z" fill="url(#c)"/><path d="M8.01 12.094h2l-1 5-1-5Z" fill="#F6F7F8"/><defs><linearGradient id="a" x1="11.834" y1="1.985" x2="1.394" y2="8.68" gradientUnits="userSpaceOnUse"><stop stop-color="#9AAED8"/><stop offset="1" stop-color="#83A0DE"/></linearGradient><linearGradient id="b" x1="13.533" y1="-3.281" x2=".922" y2="6.844" gradientUnits="userSpaceOnUse"><stop stop-color="#4C86DF"/><stop offset="1" stop-color="#3C70C1"/></linearGradient><linearGradient id="c" x1=".5" y1="8.728" x2="12.651" y2="27.338" gradientUnits="userSpaceOnUse"><stop stop-color="#4C86DF"/><stop offset="1" stop-color="#3C70C1"/></linearGradient></defs></svg>