<svg viewBox="0 0 26 30" fill="none" xmlns="http://www.w3.org/2000/svg"><path d="M14.999 29.693c4.688-.966 10.751-4.435 10.751-13.406 0-8.163-5.81-13.6-9.988-16.097-.927-.554-2.012.175-2.012 1.277v2.821c0 2.225-.91 6.285-3.436 7.974-1.29.862-2.683-.429-2.84-2.003l-.129-1.292c-.15-1.503-1.637-2.415-2.805-1.499C2.442 9.114.25 11.996.25 16.288.25 27.257 8.183 30 12.15 30c.23 0 .473-.007.726-.022.668-.087 0 .153 2.123-.285Z" fill="#F4697F" fill-opacity=".4"/><path d="M7.75 24.514c0 4.042 3.167 5.292 5.126 5.464.668-.087 0 .153 2.123-.285 1.557-.566 3.251-2.02 3.251-5.179 0-2.002-1.228-3.237-2.19-3.815-.294-.177-.636.046-.662.395-.084 1.108-1.118 1.99-1.823 1.148-.622-.744-.884-1.831-.884-2.527v-.91c0-.547-.536-.91-.995-.63-1.703 1.04-3.946 3.178-3.946 6.34Z" fill="#F4697F"/></svg>