<svg viewBox="0 0 24 30" fill="none" xmlns="http://www.w3.org/2000/svg"><path fill-rule="evenodd" clip-rule="evenodd" d="m7.097 5.657-4.593 6.215c-1.927 2.607-2.89 3.91-2.36 4.936l.028.05c.562 1.01 2.226 1.01 5.555 1.01 1.85 0 2.774 0 3.354.545l.03.029 5.808-6.855-.03-.029c-.568-.557-.568-1.446-.568-3.223v-.464c0-4.927 0-7.39-1.385-7.815-1.385-.425-2.87 1.584-5.839 5.601Z" fill="url(#a)"/><path d="M9.679 21.665v.464c0 4.927 0 7.39 1.385 7.815 1.385.425 2.87-1.584 5.838-5.601l4.594-6.215c1.927-2.607 2.89-3.91 2.36-4.936a1.88 1.88 0 0 0-.028-.05c-.562-1.01-2.226-1.01-5.555-1.01-1.85 0-2.774 0-3.354-.545l-5.808 6.855c.568.557.568 1.446.568 3.223Z" fill="url(#b)"/><defs><linearGradient id="a" x1="0" y1="-6.281" x2="23.462" y2="10.648" gradientUnits="userSpaceOnUse"><stop stop-color="#4C86DF"/><stop offset="1" stop-color="#3C70C1"/></linearGradient><linearGradient id="b" x1="9.111" y1="11.587" x2="30.882" y2="24.79" gradientUnits="userSpaceOnUse"><stop stop-color="#9AAED8"/><stop offset="1" stop-color="#83A0DE"/></linearGradient></defs></svg>