<svg viewBox="0 0 20 20" fill="none" xmlns="http://www.w3.org/2000/svg"><path fill-rule="evenodd" clip-rule="evenodd" d="M20 10c0 5.523-4.477 10-10 10a9.983 9.983 0 0 1-3.321-.565A8.973 8.973 0 0 1 6 16c0-2.221.805-4.255 2.138-5.824A6.493 6.493 0 0 0 13.5 13a6.497 6.497 0 0 0 5.567-3.143c.24-.396.933-.32.933.143Z" fill="url(#a)"/><path d="M0 10c0 4.359 2.789 8.066 6.679 9.435A8.973 8.973 0 0 1 6 16c0-2.221.805-4.255 2.138-5.824A6.47 6.47 0 0 1 7 6.5 6.496 6.496 0 0 1 10.143.933C10.54.693 10.463 0 10 0 4.477 0 0 4.477 0 10Z" fill="url(#b)"/><defs><linearGradient id="a" x1="-8.209" y1="2.21" x2="9.739" y2="32.093" gradientUnits="userSpaceOnUse"><stop stop-color="#9B9EA2"/><stop offset="1" stop-color="#7E8288"/></linearGradient><linearGradient id="b" x1="-4.182" y1="-1.581" x2="30.731" y2="21.511" gradientUnits="userSpaceOnUse"><stop stop-color="#5C636B"/><stop offset="1" stop-color="#5C636B"/></linearGradient></defs></svg>