<svg viewBox="0 0 24 24" fill="none" xmlns="http://www.w3.org/2000/svg"><path d="M23.316 11.575a.5.5 0 0 1 0 .85l-2.112 1.311a.5.5 0 0 0-.159.693l1.334 2.098a.5.5 0 0 1-.368.765l-2.472.265a.5.5 0 0 0-.443.556l.291 2.47a.5.5 0 0 1-.664.529l-2.342-.834a.5.5 0 0 0-.64.309l-.809 2.35a.5.5 0 0 1-.828.19l-1.748-1.768a.5.5 0 0 0-.711 0l-1.749 1.768a.5.5 0 0 1-.828-.19l-.809-2.35a.5.5 0 0 0-.64-.309l-2.342.834a.5.5 0 0 1-.664-.53l.291-2.469a.5.5 0 0 0-.443-.555l-2.472-.265a.5.5 0 0 1-.369-.766l1.334-2.098a.5.5 0 0 0-.158-.693L.684 12.425a.5.5 0 0 1 0-.85l2.112-1.311a.5.5 0 0 0 .158-.693L1.62 7.473a.5.5 0 0 1 .37-.765l2.471-.266a.5.5 0 0 0 .443-.555l-.291-2.47a.5.5 0 0 1 .664-.529l2.342.834a.5.5 0 0 0 .64-.309l.809-2.35a.5.5 0 0 1 .828-.19l1.748 1.768a.5.5 0 0 0 .711 0L14.104.873a.5.5 0 0 1 .828.19l.809 2.35a.5.5 0 0 0 .64.309l2.342-.834a.5.5 0 0 1 .664.53l-.291 2.469a.5.5 0 0 0 .443.555l2.472.266a.5.5 0 0 1 .369.765l-1.334 2.098a.5.5 0 0 0 .158.693l2.112 1.311Z" fill="url(#a)"/><path fill-rule="evenodd" clip-rule="evenodd" d="M21.814 15.637c-.898.237-1.841.363-2.814.363-6.075 0-11-4.925-11-11 0-.455.028-.904.081-1.345a.5.5 0 0 1-.462.067l-2.342-.834a.5.5 0 0 0-.664.53l.291 2.469a.5.5 0 0 1-.443.556l-2.472.265a.5.5 0 0 0-.368.765l1.333 2.098a.5.5 0 0 1-.158.693L.684 11.575a.5.5 0 0 0 0 .85l2.112 1.311a.5.5 0 0 1 .158.693l-1.333 2.098a.5.5 0 0 0 .368.766l2.472.265a.5.5 0 0 1 .443.555l-.291 2.47a.5.5 0 0 0 .664.529l2.342-.834a.5.5 0 0 1 .64.309l.809 2.35a.5.5 0 0 0 .828.19l1.749-1.768a.5.5 0 0 1 .71 0l1.749 1.768a.5.5 0 0 0 .828-.19l.809-2.35a.5.5 0 0 1 .64-.309l2.342.834a.5.5 0 0 0 .664-.53l-.291-2.469a.5.5 0 0 1 .443-.555l2.472-.265a.5.5 0 0 0 .369-.766l-.566-.89Z" fill="url(#b)"/><defs><linearGradient id="a" x1="41.058" y1="-24.358" x2="-15.687" y2="21.526" gradientUnits="userSpaceOnUse"><stop stop-color="#9B9EA2"/><stop offset="1" stop-color="#7E8288"/></linearGradient><linearGradient id="b" x1="-8.404" y1="1.198" x2="29.862" y2="52.193" gradientUnits="userSpaceOnUse"><stop stop-color="#5C636B"/><stop offset="1" stop-color="#5C636B"/></linearGradient></defs></svg>