<svg viewBox="0 0 24 20" fill="none" xmlns="http://www.w3.org/2000/svg"><path opacity=".8" fill-rule="evenodd" clip-rule="evenodd" d="M15.603.483a.5.5 0 0 1 .78.01l6.988 8.97a.5.5 0 0 1-.394.807h-2.21a.5.5 0 0 0-.5.5v4.906C20.267 18.064 18.357 20 16 20h-3.2c1.766 0 3.198-1.453 3.198-3.243L16 9.487a3 3 0 0 0-3-3h-2.333L15.603.482Z" fill="url(#a)"/><path opacity=".8" fill-rule="evenodd" clip-rule="evenodd" d="M0 16.757V4.865a1.61 1.61 0 0 0 1.6 1.621H13a3 3 0 0 1 3 3v7.27C16 18.549 14.567 20 12.8 20H3.2C1.433 20 0 18.548 0 16.757Zm10.667-4.054c0-.747.597-1.352 1.333-1.352h.533c.737 0 1.334.605 1.334 1.352 0 .746-.597 1.351-1.334 1.351H12a1.342 1.342 0 0 1-1.333-1.351Z" fill="url(#b)"/><path opacity=".6" d="M0 4.865a1.61 1.61 0 0 1 1.6-1.622h11.733l-2.666 3.243H1.6A1.61 1.61 0 0 1 0 4.865Z" fill="url(#c)"/><defs><linearGradient id="a" x1="-2.866" y1="-14.215" x2="35.52" y2="17.432" gradientUnits="userSpaceOnUse"><stop stop-color="#9B9EA2"/><stop offset="1" stop-color="#7E8288"/></linearGradient><linearGradient id="b" x1="-6.435" y1="3.634" x2="22.083" y2="40.9" gradientUnits="userSpaceOnUse"><stop stop-color="#5C636B"/><stop offset="1" stop-color="#5C636B"/></linearGradient><linearGradient id="c" x1="-13.533" y1=".938" x2="-11.131" y2="13.148" gradientUnits="userSpaceOnUse"><stop stop-color="#9B9EA2"/><stop offset="1" stop-color="#7E8288"/></linearGradient></defs></svg>