<svg viewBox="0 0 280 179" fill="none" xmlns="http://www.w3.org/2000/svg"><path d="M141.739 91.22a65.36 65.36 0 0 1 21.851 3.738 4.028 4.028 0 0 0 4.511-1.305c14.117-18.049 35.975-29.632 60.51-29.632 4.032 0 7.992.313 11.858.916 1.826.285 3.614-.727 4.369-2.414C251.134 48.433 264.288 38.145 280 36v143H0c2.164-24.26 22.342-43.272 46.914-43.272a46.529 46.529 0 0 1 24.505 6.939c2.446 1.509 5.88.229 6.64-2.543 7.728-28.2 33.311-48.903 63.68-48.903Z" fill="#fff"/><path fill-rule="evenodd" clip-rule="evenodd" d="m33.097 96.657-4.593 6.215c-1.927 2.607-2.89 3.911-2.36 4.936l.028.05c.562 1.01 2.226 1.01 5.555 1.01 1.85 0 2.774 0 3.354.545l.03.029 5.808-6.855-.03-.029c-.568-.557-.568-1.446-.568-3.223v-.464c0-4.927 0-7.39-1.385-7.815-1.385-.425-2.87 1.584-5.839 5.601Z" fill="#fff"/><path opacity=".5" d="M35.68 112.665v.464c-.001 4.927-.001 7.391 1.384 7.815 1.385.425 2.87-1.584 5.839-5.601l4.593-6.215c1.927-2.607 2.89-3.911 2.36-4.936l-.028-.05c-.562-1.01-2.226-1.01-5.555-1.01-1.849 0-2.774 0-3.354-.545l-5.808 6.855c.568.557.568 1.446.568 3.223Z" fill="#fff"/><path d="M125.588 67.47a12.786 12.786 0 0 1-2.964-.433c-6.802-1.823-10.838-8.814-9.015-15.616.187-.7.43-1.371.721-2.01a1.868 1.868 0 0 1-.201.097c-.489.2-1.026.178-2.1.136l-.978-.038c-3.78-.149-5.67-.223-6.459 1.026-.79 1.25.045 2.996 1.713 6.488l.431.904c.475.992.712 1.488.733 2.03.022.54-.175 1.065-.568 2.114l-.358.955c-1.383 3.692-2.074 5.538-1.19 6.678.884 1.14 2.758.82 6.507.177l.969-.166c1.066-.183 1.598-.274 2.101-.14.502.135.918.48 1.749 1.171l.757.629c2.925 2.43 4.388 3.646 5.723 3.1 1.336-.545 1.66-2.49 2.308-6.378l.121-.724Z" fill="#fff"/><path opacity=".5" d="m116.48 47.39-.703.724c-.773.796-1.159 1.194-1.648 1.394.069-.029.135-.06.201-.097a12.81 12.81 0 0 0-.721 2.01c-1.823 6.802 2.214 13.793 9.015 15.616.99.265 1.983.406 2.964.433l.047-.282c.185-1.106.277-1.658.566-2.116.289-.458.742-.769 1.649-1.391l.825-.567c3.191-2.19 4.787-3.285 4.728-4.762-.059-1.477-1.732-2.357-5.08-4.118l-.866-.456c-.952-.5-1.427-.75-1.751-1.169-.324-.417-.459-.955-.73-2.03l-.247-.979c-.953-3.784-1.429-5.676-2.801-6.044-1.372-.367-2.731 1.033-5.448 3.834Z" fill="#fff"/><path d="M226.482 40.087a1 1 0 0 1 .366-1.366l3.647-2.105a.5.5 0 0 1 .683.183l2.589 4.484a1 1 0 0 1-.366 1.366l-3.647 2.106a.5.5 0 0 1-.683-.183l-2.589-4.485Z" fill="#fff"/><path opacity=".5" d="m203.998 31.983 3.077.782a1.035 1.035 0 0 0 1.223-.675c3.635-10.405 14.568-16.717 25.397-14.662.525.1 1.051-.207 1.196-.722l.861-3.056c-13.651-3.247-27.741 4.888-31.754 18.333Z" fill="#fff"/><path opacity=".75" d="m211.203 33.809 3.097.788c.515.131 1.039-.165 1.23-.661 2.493-6.471 9.303-10.403 16.153-9.326.525.082 1.044-.223 1.188-.735l.865-3.076c-9.678-2.233-19.63 3.513-22.533 13.01Z" fill="#fff"/><path d="m218.416 35.64 3.113.792c.504.128 1.015-.156 1.247-.621a7.276 7.276 0 0 1 6.905-3.985c.519.03 1.02-.27 1.161-.77l.869-3.09c-5.701-1.23-11.51 2.128-13.295 7.675Z" fill="#fff"/></svg>